<svg version="1.1" xmlns="http://www.w3.org/2000/svg" viewBox="0 0 147.60743713378906 173.42160034179688" width="147.60743713378906" height="173.42160034179688">
  <!-- svg-source:excalidraw -->
  
  <defs>
    <style class="style-fonts">
      @font-face {
        font-family: "Virgil";
        src: url("https://excalidraw.com/Virgil.woff2");
      }
      @font-face {
        font-family: "Cascadia";
        src: url("https://excalidraw.com/Cascadia.woff2");
      }
      @font-face {
        font-family: "Assistant";
        src: url("https://excalidraw.com/Assistant-Regular.woff2");
      }
    </style>
    
  </defs>
  <g transform="translate(32.94586181640625 14.499176025390625) rotate(0 10.291725158691406 23.676910400390625)" stroke="none"><path d="M-0.36 -0.2 C-1.58 0.01, -4.63 -1.4, -5.9 0.5 C-7.17 2.39, -7.17 8.04, -7.98 11.17 C-8.79 14.29, -10.3 16.01, -10.74 19.27 C-11.19 22.53, -11.09 27.02, -10.64 30.73 C-10.19 34.43, -9.37 39.02, -8.04 41.49 C-6.72 43.97, -4.88 44.32, -2.68 45.59 C-0.47 46.86, 2.7 48.8, 5.18 49.11 C7.66 49.42, 9.49 48.59, 12.22 47.45 C14.95 46.31, 19.27 43.87, 21.56 42.29 C23.86 40.7, 24.39 41.33, 26 37.96 C27.61 34.6, 30.14 25.81, 31.2 22.09 C32.25 18.37, 32.72 18.14, 32.32 15.65 C31.91 13.15, 30.93 9.54, 28.77 7.14 C26.61 4.74, 23.36 2.81, 19.34 1.26 C15.33 -0.3, 8.73 -2.86, 4.68 -2.18 C0.63 -1.51, -4.01 4.72, -4.97 5.31 C-5.94 5.89, -2.15 2.06, -1.1 1.35" stroke="none" stroke-width="0" fill="#b2f2bb" fill-rule="evenodd"></path><path fill="#2f9e44" d="M 0.86,2.73 Q 0.86,2.73 -0.42,3.24 -1.72,3.76 -3.34,5.99 -4.97,8.22 -5.71,10.25 -6.45,12.27 -7.00,14.40 -7.55,16.53 -7.84,18.80 -8.14,21.06 -8.07,24.03 -8.01,27.00 -7.50,29.20 -6.99,31.39 -6.19,33.73 -5.38,36.06 -4.38,38.04 -3.39,40.01 -1.47,41.49 0.43,42.96 2.41,43.82 4.39,44.68 6.92,44.78 9.45,44.88 11.54,44.34 13.63,43.79 15.88,42.18 18.12,40.57 19.74,38.68 21.36,36.79 22.62,34.60 23.87,32.41 24.75,30.40 25.62,28.39 26.34,26.26 27.05,24.14 27.79,21.96 28.54,19.79 28.65,17.62 28.77,15.45 27.78,13.56 26.80,11.66 25.61,9.87 24.42,8.08 22.47,6.84 20.51,5.59 18.76,4.23 17.01,2.86 14.56,2.64 12.11,2.43 9.76,2.32 7.41,2.20 4.84,2.98 2.28,3.76 1.34,3.76 0.40,3.75 0.10,3.86 -0.19,3.96 -0.50,4.00 -0.82,4.03 -1.13,3.98 -1.45,3.94 -1.74,3.82 -2.03,3.71 -2.29,3.52 -2.55,3.34 -2.75,3.10 -2.96,2.85 -3.10,2.57 -3.24,2.29 -3.31,1.98 -3.38,1.67 -3.38,1.35 -3.37,1.04 -3.29,0.73 -3.21,0.43 -3.06,0.15 -2.90,-0.12 -2.69,-0.35 -2.48,-0.59 -2.21,-0.76 -1.95,-0.94 -2.25,-0.73 -2.55,-0.52 -2.19,-0.76 -1.83,-0.99 -1.42,-1.10 -1.01,-1.20 -0.59,-1.17 -0.16,-1.14 0.22,-0.98 0.61,-0.82 0.93,-0.54 1.25,-0.26 1.46,0.10 1.68,0.47 1.76,0.89 1.84,1.30 1.79,1.72 1.74,2.15 1.55,2.53 1.37,2.91 1.07,3.22 0.77,3.52 0.40,3.71 0.02,3.90 -0.39,3.97 -0.81,4.03 -1.23,3.95 -1.65,3.88 -2.02,3.67 -2.39,3.47 -2.68,3.15 -2.97,2.84 -3.14,2.45 -3.31,2.06 -3.35,1.64 -3.39,1.22 -3.29,0.80 -3.19,0.39 -2.97,0.03 -2.74,-0.32 -2.42,-0.59 -2.09,-0.86 -1.69,-1.01 -1.29,-1.16 -0.87,-1.18 -0.44,-1.19 -0.04,-1.07 0.36,-0.95 0.71,-0.71 1.06,-0.46 1.31,-0.12 1.56,0.21 1.69,0.62 1.82,1.02 1.81,1.44 1.80,1.87 1.66,2.27 1.52,2.67 0.96,3.21 0.40,3.75 0.10,3.86 -0.19,3.96 -0.50,4.00 -0.82,4.03 -1.13,3.98 -1.45,3.94 -1.74,3.82 -2.03,3.71 -2.29,3.52 -2.55,3.34 -2.75,3.10 -2.96,2.85 -3.10,2.57 -3.24,2.29 -3.31,1.98 -3.38,1.67 -3.38,1.35 -3.37,1.04 -3.29,0.73 -3.21,0.43 -3.06,0.15 -2.90,-0.12 -2.69,-0.35 -2.48,-0.59 -2.21,-0.76 -1.95,-0.94 -0.05,-1.91 1.83,-2.88 4.68,-3.48 7.53,-4.08 10.33,-3.97 13.14,-3.87 15.41,-3.69 17.67,-3.51 19.88,-2.45 22.08,-1.39 24.11,0.11 26.14,1.61 27.96,3.03 29.78,4.44 31.15,6.54 32.51,8.64 33.51,10.63 34.51,12.63 34.81,15.28 35.12,17.93 34.71,20.25 34.31,22.56 33.49,25.05 32.66,27.54 31.85,29.99 31.04,32.43 29.96,34.50 28.88,36.56 27.47,38.89 26.07,41.21 24.38,43.10 22.69,45.00 20.95,46.39 19.21,47.78 17.00,48.98 14.79,50.18 11.86,50.80 8.93,51.42 6.54,51.37 4.15,51.32 2.05,50.60 -0.04,49.88 -2.37,48.77 -4.70,47.65 -6.40,46.08 -8.10,44.51 -9.41,42.22 -10.72,39.94 -11.66,37.43 -12.61,34.93 -13.28,32.30 -13.95,29.66 -14.24,27.23 -14.53,24.80 -14.46,22.67 -14.39,20.54 -14.01,17.83 -13.63,15.13 -12.97,12.70 -12.32,10.28 -11.43,7.89 -10.54,5.51 -9.29,3.24 -8.05,0.97 -5.81,-0.55 -3.57,-2.08 -2.22,-2.40 -0.86,-2.73 -0.52,-2.79 -0.18,-2.86 0.15,-2.84 0.50,-2.82 0.83,-2.72 1.16,-2.62 1.46,-2.44 1.75,-2.26 2.00,-2.02 2.24,-1.78 2.43,-1.48 2.61,-1.19 2.71,-0.86 2.81,-0.53 2.84,-0.18 2.86,0.15 2.80,0.49 2.74,0.84 2.60,1.15 2.46,1.47 2.25,1.74 2.03,2.01 1.76,2.23 1.49,2.44 1.18,2.59 0.86,2.73 0.86,2.73 L 0.86,2.73 Z"></path></g><g transform="translate(45.430816650390625 62.2467041015625) rotate(0 -13.075637817382812 50.58744812011719)" stroke="none"><path fill="#2f9e44" d="M 2.89,0.29 Q 2.89,0.29 2.89,1.42 2.90,2.54 3.03,5.20 3.17,7.86 3.37,10.18 3.58,12.51 3.64,14.95 3.71,17.40 3.72,19.59 3.73,21.78 3.94,24.75 4.16,27.73 4.27,30.43 4.38,33.13 4.42,36.43 4.46,39.74 4.60,42.32 4.74,44.90 4.97,47.59 5.20,50.29 5.28,52.93 5.35,55.57 5.37,58.10 5.40,60.63 5.16,62.93 4.93,65.24 4.40,67.75 3.88,70.26 3.36,72.55 2.85,74.84 2.27,77.24 1.70,79.65 1.14,81.82 0.58,84.00 -0.10,86.11 -0.78,88.23 -1.65,90.17 -2.52,92.12 -3.43,94.10 -4.33,96.07 -5.54,97.98 -6.76,99.89 -8.35,101.46 -9.95,103.02 -11.91,103.86 -13.87,104.70 -16.38,104.54 -18.88,104.38 -21.25,102.81 -23.62,101.23 -26.22,98.42 -28.81,95.61 -29.06,95.27 -29.32,94.93 -29.45,94.52 -29.58,94.12 -29.57,93.69 -29.57,93.27 -29.42,92.87 -29.28,92.46 -29.02,92.13 -28.76,91.80 -28.40,91.56 -28.05,91.33 -27.64,91.22 -27.23,91.11 -26.80,91.14 -26.38,91.17 -25.99,91.33 -25.59,91.49 -25.27,91.77 -24.95,92.05 -24.74,92.42 -24.53,92.79 -24.44,93.20 -24.35,93.62 -24.41,94.04 -24.46,94.46 -24.64,94.85 -24.83,95.23 -25.12,95.53 -25.42,95.84 -25.80,96.03 -26.17,96.23 -26.59,96.29 -27.02,96.35 -27.43,96.28 -27.85,96.20 -28.22,96.00 -28.60,95.80 -28.89,95.48 -29.17,95.17 -29.35,94.78 -29.52,94.39 -29.56,93.97 -29.60,93.55 -29.50,93.13 -29.41,92.72 -29.18,92.36 -28.96,92.00 -28.63,91.73 -28.30,91.46 -27.91,91.31 -27.51,91.15 -27.08,91.14 -26.66,91.12 -26.25,91.24 -25.84,91.36 -25.50,91.60 -25.15,91.84 -25.15,91.84 -25.15,91.84 -21.10,94.61 -17.06,97.39 -14.90,96.37 -12.74,95.36 -11.63,93.51 -10.51,91.66 -9.50,89.56 -8.50,87.45 -7.43,84.75 -6.36,82.05 -5.63,79.17 -4.91,76.29 -4.26,73.77 -3.61,71.25 -3.05,69.00 -2.50,66.75 -1.98,63.70 -1.47,60.65 -1.50,58.24 -1.53,55.83 -1.60,53.31 -1.67,50.79 -1.88,48.03 -2.10,45.27 -2.22,42.51 -2.33,39.75 -2.32,37.55 -2.32,35.36 -2.34,33.19 -2.36,31.02 -2.56,27.96 -2.75,24.90 -2.85,22.63 -2.94,20.36 -2.93,18.13 -2.91,15.90 -2.93,13.64 -2.94,11.37 -3.12,9.19 -3.31,7.01 -3.33,4.46 -3.35,1.91 -3.12,0.81 -2.89,-0.29 -2.81,-0.63 -2.74,-0.97 -2.58,-1.29 -2.42,-1.60 -2.20,-1.87 -1.97,-2.14 -1.68,-2.34 -1.40,-2.55 -1.07,-2.68 -0.75,-2.81 -0.40,-2.86 -0.05,-2.91 0.29,-2.87 0.64,-2.84 0.97,-2.72 1.30,-2.60 1.59,-2.41 1.88,-2.21 2.12,-1.95 2.36,-1.70 2.53,-1.39 2.70,-1.08 2.79,-0.74 2.88,-0.40 2.88,-0.05 2.89,0.29 2.89,0.29 L 2.89,0.29 Z"></path></g><g transform="translate(10 60.390625) rotate(0 33.293800354003906 15.325363159179688)" stroke="none"><path fill="#2f9e44" d="M 1.59,-2.47 Q 1.59,-2.47 2.67,-2.02 3.76,-1.57 5.26,0.32 6.76,2.23 7.47,4.34 8.17,6.45 8.77,8.65 9.38,10.84 9.91,13.00 10.45,15.15 11.32,17.36 12.19,19.57 13.18,21.59 14.16,23.62 15.69,25.17 17.22,26.71 19.41,27.81 21.60,28.91 23.92,29.52 26.25,30.12 28.82,30.28 31.39,30.44 33.61,30.50 35.82,30.56 38.21,30.32 40.60,30.08 42.93,29.60 45.26,29.12 47.18,27.83 49.10,26.55 50.73,24.76 52.35,22.97 53.73,21.15 55.11,19.34 56.11,16.97 57.11,14.61 57.79,12.48 58.47,10.34 59.41,7.57 60.36,4.79 61.36,2.12 62.36,-0.53 63.10,-2.13 63.84,-3.74 64.04,-4.11 64.24,-4.49 64.55,-4.78 64.85,-5.08 65.24,-5.26 65.62,-5.44 66.04,-5.49 66.47,-5.54 66.88,-5.45 67.30,-5.36 67.66,-5.14 68.03,-4.93 68.30,-4.60 68.58,-4.28 68.74,-3.89 68.90,-3.49 68.93,-3.07 68.95,-2.65 68.84,-2.23 68.73,-1.82 68.49,-1.47 68.26,-1.12 67.92,-0.86 67.58,-0.60 67.18,-0.46 66.78,-0.32 66.36,-0.32 65.93,-0.32 65.53,-0.45 65.12,-0.58 64.78,-0.84 64.44,-1.10 64.20,-1.45 63.96,-1.80 63.85,-2.20 63.73,-2.61 63.75,-3.04 63.77,-3.46 63.93,-3.86 64.08,-4.25 64.35,-4.58 64.63,-4.90 64.99,-5.13 65.35,-5.35 65.77,-5.44 66.18,-5.53 66.60,-5.49 67.03,-5.45 67.41,-5.27 67.80,-5.10 68.11,-4.81 68.42,-4.52 68.62,-4.14 68.82,-3.77 68.89,-3.35 68.97,-2.93 68.90,-2.51 68.83,-2.09 68.83,-2.09 68.83,-2.09 68.47,-0.35 68.11,1.38 67.20,4.24 66.29,7.09 65.71,9.88 65.13,12.67 64.53,15.23 63.94,17.80 63.13,20.09 62.32,22.39 61.12,24.17 59.93,25.95 58.39,27.74 56.85,29.54 55.36,31.08 53.88,32.63 51.75,34.09 49.62,35.55 47.57,36.21 45.52,36.87 43.17,37.30 40.81,37.72 38.29,37.87 35.76,38.02 33.53,37.97 31.30,37.92 29.10,37.84 26.91,37.77 24.14,37.26 21.37,36.75 18.85,35.80 16.33,34.85 14.30,33.60 12.27,32.35 10.73,30.79 9.19,29.23 7.83,27.29 6.48,25.35 5.63,23.05 4.78,20.75 4.05,18.73 3.32,16.72 2.81,14.61 2.30,12.51 1.82,10.40 1.35,8.30 0.70,6.16 0.05,4.03 -0.77,3.25 -1.59,2.47 -1.86,2.25 -2.14,2.02 -2.35,1.73 -2.56,1.45 -2.70,1.12 -2.83,0.79 -2.89,0.44 -2.94,0.09 -2.91,-0.25 -2.88,-0.61 -2.76,-0.94 -2.65,-1.28 -2.45,-1.58 -2.26,-1.88 -2.00,-2.12 -1.75,-2.37 -1.44,-2.54 -1.13,-2.72 -0.78,-2.81 -0.44,-2.91 -0.09,-2.92 0.26,-2.93 0.60,-2.86 0.95,-2.78 1.27,-2.63 1.59,-2.47 1.59,-2.47 L 1.59,-2.47 Z"></path></g><g transform="translate(100.43330383300781 26.984375) rotate(0 -0.5906753540039062 21.905441284179688)" stroke="none"><path fill="#2f9e44" d="M 2.73,-0.71 Q 2.73,-0.71 3.28,0.59 3.82,1.89 4.28,4.10 4.74,6.30 5.10,8.75 5.45,11.20 5.75,13.41 6.04,15.61 5.22,17.60 4.40,19.59 2.59,21.09 0.79,22.59 -1.93,23.99 -4.66,25.40 -6.78,26.66 -8.90,27.91 -10.74,29.54 -12.57,31.16 -13.73,33.27 -14.89,35.39 -13.37,37.04 -11.85,38.70 -9.54,39.61 -7.23,40.52 -4.97,40.44 -2.71,40.36 -0.49,39.61 1.73,38.86 4.06,37.67 6.39,36.48 8.11,35.14 9.84,33.80 11.60,31.90 13.36,30.00 11.94,28.16 10.51,26.33 7.75,25.76 4.99,25.19 3.83,23.58 2.66,21.97 2.39,22.30 2.11,22.62 1.75,22.84 1.39,23.06 0.97,23.15 0.56,23.24 0.13,23.20 -0.28,23.16 -0.67,22.98 -1.05,22.80 -1.36,22.51 -1.67,22.22 -1.87,21.84 -2.07,21.47 -2.14,21.05 -2.21,20.63 -2.14,20.21 -2.07,19.79 -1.88,19.41 -1.68,19.04 -1.37,18.74 -1.06,18.45 -0.68,18.27 -0.29,18.09 0.12,18.05 0.54,18.00 0.96,18.09 1.37,18.18 1.74,18.40 2.10,18.62 2.38,18.94 2.65,19.26 2.81,19.66 2.97,20.05 3.00,20.48 3.02,20.90 2.91,21.31 2.79,21.72 2.56,22.07 2.32,22.42 1.98,22.68 1.64,22.94 1.24,23.08 0.84,23.21 0.41,23.21 -0.00,23.22 -0.41,23.08 -0.81,22.95 -1.15,22.69 -1.49,22.43 -1.73,22.08 -1.96,21.73 -2.08,21.32 -2.19,20.91 -2.17,20.49 -2.15,20.06 -1.99,19.67 -1.84,19.27 -1.84,19.27 -1.84,19.27 2.08,18.43 6.01,17.58 8.13,17.89 10.26,18.20 12.36,19.10 14.46,20.00 16.23,21.21 18.00,22.41 19.14,24.74 20.27,27.06 20.11,29.67 19.94,32.28 18.75,34.09 17.57,35.90 15.79,37.58 14.02,39.26 11.83,40.90 9.64,42.54 7.24,43.77 4.85,44.99 2.48,45.84 0.11,46.69 -2.22,47.17 -4.57,47.66 -7.28,47.25 -9.99,46.84 -12.27,45.97 -14.55,45.11 -16.25,43.79 -17.94,42.46 -19.40,40.54 -20.86,38.63 -21.09,36.50 -21.31,34.38 -20.59,32.36 -19.87,30.34 -18.23,28.26 -16.60,26.17 -14.45,24.36 -12.31,22.55 -9.99,21.11 -7.67,19.67 -5.35,18.36 -3.02,17.05 -2.01,14.92 -0.99,12.78 -1.26,10.54 -1.52,8.30 -1.96,5.91 -2.40,3.53 -2.57,2.12 -2.73,0.71 -2.78,0.37 -2.83,0.04 -2.79,-0.29 -2.75,-0.63 -2.64,-0.95 -2.52,-1.27 -2.33,-1.56 -2.14,-1.84 -1.89,-2.07 -1.64,-2.30 -1.34,-2.47 -1.04,-2.63 -0.71,-2.71 -0.38,-2.80 -0.04,-2.81 0.30,-2.81 0.63,-2.73 0.96,-2.66 1.27,-2.50 1.57,-2.35 1.83,-2.13 2.09,-1.90 2.29,-1.63 2.48,-1.35 2.61,-1.03 2.73,-0.71 2.73,-0.71 L 2.73,-0.71 Z"></path></g><g transform="translate(100.93946838378906 72.42611694335938) rotate(0 1.6588897705078125 17.181060791015625)" stroke="none"><path d="M-1.07 0.99 C-1 1.61, 4.28 1.11, 1.84 3 C-0.59 4.88, -12.31 9.89, -15.68 12.29 C-19.04 14.69, -17.36 15.65, -18.35 17.39 C-19.34 19.12, -21.57 20.77, -21.6 22.7 C-21.63 24.62, -19.39 27.76, -18.53 28.95 C-17.66 30.15, -17.83 29.24, -16.41 29.88 C-14.98 30.51, -12.67 32.1, -9.98 32.78 C-7.29 33.46, -3.2 34.15, -0.28 33.97 C2.64 33.79, 5.28 32.41, 7.56 31.69 C9.84 30.98, 10.72 31.33, 13.41 29.68 C16.09 28.03, 22.21 23.97, 23.66 21.77 C25.11 19.57, 22.97 18.1, 22.12 16.48 C21.26 14.87, 20.03 13.57, 18.55 12.09 C17.06 10.61, 15.33 8.39, 13.22 7.6 C11.12 6.81, 8.16 7.66, 5.92 7.33 C3.68 7, 0.88 6.17, -0.21 5.63 C-1.3 5.09, -0.57 5.15, -0.63 4.07 C-0.69 2.99, -0.71 -0.38, -0.54 -0.86" stroke="none" stroke-width="0" fill="#b2f2bb" fill-rule="evenodd"></path><path fill="#2f9e44" d="M 2.86,-0.09 Q 2.86,-0.09 2.97,0.92 3.08,1.94 2.22,4.46 1.37,6.98 -0.54,8.20 -2.45,9.42 -4.18,10.65 -5.91,11.88 -7.85,12.91 -9.79,13.94 -11.80,15.18 -13.82,16.42 -14.97,18.45 -16.11,20.48 -16.09,22.66 -16.07,24.84 -14.38,26.56 -12.69,28.28 -10.49,29.23 -8.29,30.17 -6.04,30.33 -3.79,30.48 -1.48,30.46 0.82,30.45 3.25,30.13 5.67,29.81 7.70,28.59 9.73,27.38 11.79,25.78 13.86,24.18 15.56,22.69 17.26,21.21 18.35,19.28 19.43,17.35 17.88,15.86 16.32,14.38 14.32,13.63 12.33,12.88 10.15,12.98 7.98,13.08 5.77,12.94 3.56,12.80 1.30,12.26 -0.96,11.72 -2.55,10.00 -4.14,8.29 -3.63,4.78 -3.12,1.28 -2.93,0.90 -2.75,0.52 -2.45,0.22 -2.15,-0.08 -1.77,-0.27 -1.39,-0.46 -0.97,-0.52 -0.55,-0.58 -0.14,-0.51 0.27,-0.43 0.64,-0.22 1.02,-0.02 1.30,0.29 1.59,0.60 1.76,0.99 1.93,1.38 1.97,1.80 2.01,2.23 1.91,2.64 1.81,3.05 1.58,3.41 1.35,3.77 1.03,4.04 0.70,4.31 0.30,4.46 -0.09,4.61 -0.51,4.62 -0.94,4.64 -1.35,4.52 -1.75,4.40 -2.10,4.15 -2.45,3.91 -2.70,3.56 -2.95,3.22 -3.08,2.81 -3.20,2.41 -3.20,1.98 -3.19,1.56 -3.04,1.16 -2.90,0.76 -2.64,0.43 -2.37,0.09 -2.02,-0.13 -1.66,-0.36 -1.25,-0.47 -0.84,-0.57 -0.41,-0.54 0.00,-0.51 0.39,-0.34 0.78,-0.18 1.10,0.09 1.42,0.37 1.63,0.74 1.84,1.11 1.93,1.53 2.01,1.94 1.96,2.37 1.90,2.79 1.90,2.79 1.90,2.79 3.04,3.06 4.18,3.33 6.50,3.90 8.81,4.47 11.07,4.66 13.32,4.85 15.77,5.70 18.22,6.55 20.22,7.91 22.22,9.27 23.83,10.88 25.44,12.49 26.33,14.72 27.23,16.94 26.84,19.17 26.44,21.39 25.05,23.42 23.67,25.45 21.87,27.11 20.07,28.78 18.14,30.41 16.20,32.04 13.92,33.45 11.64,34.86 9.53,35.95 7.42,37.05 4.94,37.42 2.46,37.80 0.06,37.94 -2.34,38.08 -4.77,37.94 -7.20,37.80 -9.53,37.35 -11.86,36.89 -13.82,35.99 -15.78,35.08 -17.74,33.66 -19.70,32.23 -21.18,30.38 -22.66,28.53 -23.11,26.41 -23.55,24.28 -23.31,21.69 -23.08,19.10 -22.38,17.07 -21.68,15.04 -20.24,13.31 -18.81,11.58 -17.07,10.30 -15.34,9.01 -13.07,7.92 -10.80,6.83 -8.83,5.78 -6.87,4.73 -4.91,3.43 -2.95,2.13 -2.91,1.11 -2.86,0.09 -2.83,-0.25 -2.80,-0.59 -2.69,-0.92 -2.58,-1.25 -2.39,-1.54 -2.20,-1.83 -1.95,-2.07 -1.70,-2.30 -1.40,-2.47 -1.10,-2.64 -0.76,-2.74 -0.43,-2.83 -0.09,-2.84 0.25,-2.85 0.59,-2.78 0.93,-2.71 1.24,-2.56 1.55,-2.41 1.82,-2.19 2.08,-1.96 2.29,-1.69 2.49,-1.41 2.62,-1.09 2.76,-0.77 2.81,-0.43 2.86,-0.09 2.86,-0.09 L 2.86,-0.09 Z"></path></g><g transform="translate(105.60716247558594 106.28213500976562) rotate(0 -0.16869354248046875 24.576690673828125)" stroke="none"><path fill="#2f9e44" d="M 2.84,0.30 Q 2.84,0.30 2.99,1.38 3.14,2.46 3.14,4.76 3.13,7.05 3.13,9.20 3.13,11.34 3.23,13.96 3.34,16.57 3.22,18.86 3.10,21.16 3.32,23.52 3.54,25.88 3.56,28.24 3.58,30.59 3.57,32.74 3.56,34.90 3.54,37.21 3.52,39.52 3.55,41.70 3.58,43.88 2.96,46.38 2.34,48.88 2.29,49.19 2.24,49.50 2.12,49.80 1.99,50.09 1.81,50.34 1.62,50.59 1.37,50.80 1.13,51.00 0.84,51.13 0.56,51.27 0.25,51.34 -0.05,51.40 -0.37,51.39 -0.69,51.38 -0.99,51.29 -1.30,51.20 -1.57,51.05 -1.85,50.89 -2.07,50.67 -2.30,50.45 -2.47,50.19 -2.64,49.92 -2.75,49.62 -2.85,49.32 -2.87,49.00 -2.90,48.69 -2.83,48.32 -2.77,47.94 -2.57,47.57 -2.37,47.19 -2.06,46.90 -1.75,46.61 -1.36,46.43 -0.98,46.25 -0.56,46.21 -0.13,46.16 0.27,46.25 0.69,46.34 1.05,46.56 1.41,46.78 1.69,47.11 1.96,47.43 2.12,47.82 2.28,48.22 2.30,48.64 2.32,49.07 2.21,49.48 2.10,49.89 1.86,50.24 1.62,50.59 1.28,50.85 0.94,51.10 0.54,51.24 0.14,51.38 -0.28,51.38 -0.70,51.38 -1.10,51.24 -1.51,51.10 -1.85,50.85 -2.18,50.59 -2.42,50.24 -2.66,49.89 -2.77,49.48 -2.89,49.07 -2.86,48.64 -2.84,48.22 -2.68,47.82 -2.53,47.43 -2.25,47.10 -1.98,46.78 -1.61,46.56 -1.25,46.34 -0.83,46.25 -0.42,46.16 -0.00,46.21 0.42,46.25 0.80,46.43 1.19,46.61 1.50,46.90 1.81,47.19 2.00,47.57 2.20,47.95 2.27,48.36 2.34,48.78 2.34,48.83 2.34,48.88 2.29,49.19 2.24,49.50 2.12,49.79 1.99,50.09 1.81,50.34 1.62,50.59 1.37,50.80 1.13,51.00 0.84,51.13 0.56,51.27 0.25,51.34 -0.05,51.40 -0.37,51.39 -0.69,51.38 -0.99,51.29 -1.30,51.20 -1.57,51.05 -1.84,50.89 -2.07,50.67 -2.30,50.45 -2.47,50.19 -2.64,49.92 -2.75,49.62 -2.85,49.32 -2.87,49.00 -2.90,48.69 -3.23,45.91 -3.55,43.13 -3.52,40.63 -3.49,38.13 -3.46,36.00 -3.44,33.86 -3.39,31.39 -3.35,28.92 -3.35,26.70 -3.35,24.47 -3.50,22.18 -3.64,19.89 -3.52,17.63 -3.40,15.38 -3.55,13.00 -3.70,10.62 -3.70,8.42 -3.70,6.23 -3.65,3.98 -3.59,1.73 -3.22,0.71 -2.84,-0.30 -2.76,-0.64 -2.68,-0.97 -2.53,-1.28 -2.37,-1.59 -2.15,-1.85 -1.92,-2.11 -1.64,-2.31 -1.36,-2.51 -1.04,-2.64 -0.72,-2.76 -0.38,-2.81 -0.03,-2.85 0.30,-2.82 0.64,-2.78 0.97,-2.66 1.29,-2.55 1.58,-2.35 1.86,-2.16 2.09,-1.91 2.33,-1.65 2.49,-1.35 2.66,-1.05 2.74,-0.71 2.83,-0.38 2.83,-0.03 2.84,0.30 2.84,0.30 L 2.84,0.30 Z"></path></g><g transform="translate(80.91798400878906 148.85552978515625) rotate(0 28.3447265625 -16.956222534179688)" stroke="none"><path fill="#2f9e44" d="M -2.71,-0.83 Q -2.71,-0.83 -2.61,-1.43 -2.51,-2.04 -2.53,-4.25 -2.55,-6.47 -2.54,-8.83 -2.53,-11.20 -2.10,-13.40 -1.66,-15.60 -0.63,-17.59 0.39,-19.57 1.86,-21.46 3.34,-23.34 4.89,-25.02 6.45,-26.70 8.39,-28.21 10.34,-29.73 12.10,-30.96 13.86,-32.19 16.06,-32.98 18.26,-33.77 20.45,-34.59 22.65,-35.40 24.83,-35.94 27.00,-36.48 29.19,-36.76 31.37,-37.04 33.79,-36.67 36.22,-36.31 38.34,-35.65 40.45,-35.00 42.51,-34.47 44.57,-33.94 46.33,-32.72 48.08,-31.49 49.71,-29.77 51.34,-28.05 52.37,-25.93 53.40,-23.80 54.79,-21.52 56.17,-19.24 57.22,-16.94 58.27,-14.64 58.69,-12.29 59.12,-9.95 59.10,-7.08 59.09,-4.22 59.13,-3.90 59.17,-3.59 59.13,-3.27 59.09,-2.96 58.98,-2.66 58.87,-2.37 58.69,-2.11 58.51,-1.85 58.27,-1.64 58.03,-1.43 57.75,-1.28 57.47,-1.13 57.16,-1.06 56.86,-0.98 56.54,-0.98 56.22,-0.98 55.92,-1.06 55.61,-1.13 55.33,-1.28 55.05,-1.43 54.81,-1.64 54.57,-1.85 54.39,-2.11 54.21,-2.37 54.10,-2.67 53.99,-2.96 53.95,-3.20 53.92,-3.44 53.96,-3.87 54.01,-4.29 54.19,-4.68 54.37,-5.06 54.66,-5.37 54.95,-5.68 55.32,-5.88 55.70,-6.08 56.12,-6.15 56.54,-6.22 56.96,-6.15 57.38,-6.08 57.75,-5.88 58.13,-5.68 58.42,-5.37 58.71,-5.06 58.89,-4.68 59.07,-4.29 59.12,-3.87 59.16,-3.45 59.07,-3.03 58.98,-2.62 58.76,-2.25 58.54,-1.89 58.22,-1.61 57.90,-1.34 57.50,-1.18 57.11,-1.02 56.68,-1.00 56.26,-0.98 55.85,-1.09 55.44,-1.20 55.09,-1.44 54.74,-1.68 54.48,-2.02 54.22,-2.36 54.08,-2.76 53.95,-3.16 53.95,-3.59 53.95,-4.01 54.08,-4.42 54.22,-4.82 54.48,-5.16 54.73,-5.50 55.08,-5.73 55.44,-5.97 55.85,-6.09 56.26,-6.20 56.68,-6.18 57.10,-6.15 57.50,-6.00 57.89,-5.84 58.22,-5.57 58.54,-5.29 58.76,-4.93 58.98,-4.56 59.04,-4.39 59.09,-4.22 59.13,-3.90 59.17,-3.59 59.13,-3.27 59.09,-2.96 58.98,-2.66 58.87,-2.37 58.69,-2.11 58.51,-1.85 58.27,-1.64 58.03,-1.43 57.75,-1.28 57.47,-1.13 57.16,-1.06 56.86,-0.98 56.54,-0.98 56.22,-0.98 55.92,-1.06 55.61,-1.13 55.33,-1.28 55.05,-1.43 54.81,-1.64 54.57,-1.85 54.39,-2.11 54.21,-2.37 54.10,-2.66 53.99,-2.96 53.50,-4.66 53.01,-6.36 52.81,-8.94 52.60,-11.52 51.41,-13.65 50.21,-15.77 49.41,-17.74 48.60,-19.72 47.36,-22.02 46.12,-24.33 44.68,-25.91 43.24,-27.49 41.13,-28.22 39.02,-28.94 36.95,-29.57 34.88,-30.20 32.51,-30.42 30.13,-30.63 27.88,-30.18 25.64,-29.73 23.55,-28.98 21.45,-28.22 19.27,-27.55 17.09,-26.89 15.28,-25.57 13.47,-24.25 11.64,-22.89 9.81,-21.54 8.19,-19.63 6.58,-17.72 5.25,-15.52 3.91,-13.32 3.67,-11.15 3.43,-8.98 3.48,-6.84 3.54,-4.71 3.38,-2.50 3.23,-0.28 2.97,0.27 2.71,0.83 2.57,1.14 2.43,1.45 2.22,1.72 2.02,1.99 1.75,2.21 1.48,2.42 1.17,2.56 0.85,2.70 0.52,2.77 0.18,2.83 -0.15,2.81 -0.49,2.79 -0.82,2.69 -1.15,2.59 -1.44,2.42 -1.74,2.24 -1.98,2.00 -2.22,1.76 -2.40,1.47 -2.58,1.18 -2.68,0.85 -2.79,0.52 -2.81,0.18 -2.83,-0.15 -2.77,-0.49 -2.71,-0.83 -2.71,-0.83 L -2.71,-0.83 Z"></path></g><g transform="translate(113.36831665039062 10) rotate(0 -17.54674530029297 11.219863891601562)" stroke="none"><path fill="#2f9e44" d="M 2.83,-0.27 Q 2.83,-0.27 3.06,1.07 3.29,2.42 3.62,4.64 3.95,6.86 3.04,9.16 2.14,11.47 0.55,13.01 -1.03,14.54 -3.18,15.77 -5.32,17.00 -7.73,17.94 -10.13,18.87 -12.33,19.74 -14.52,20.61 -17.21,21.05 -19.90,21.50 -22.14,21.90 -24.38,22.30 -26.52,22.88 -28.67,23.46 -31.58,24.04 -34.49,24.61 -34.89,24.75 -35.29,24.88 -35.72,24.88 -36.14,24.88 -36.55,24.74 -36.95,24.61 -37.29,24.35 -37.62,24.09 -37.86,23.74 -38.10,23.39 -38.21,22.98 -38.32,22.57 -38.30,22.14 -38.28,21.72 -38.12,21.32 -37.96,20.93 -37.68,20.61 -37.41,20.28 -37.04,20.07 -36.68,19.85 -36.26,19.76 -35.85,19.67 -35.43,19.71 -35.00,19.76 -34.62,19.94 -34.23,20.12 -33.93,20.41 -33.62,20.70 -33.42,21.08 -33.22,21.46 -33.15,21.88 -33.09,22.29 -33.16,22.71 -33.23,23.13 -33.43,23.51 -33.62,23.88 -33.93,24.17 -34.24,24.47 -34.63,24.64 -35.02,24.82 -35.44,24.87 -35.86,24.91 -36.28,24.82 -36.69,24.73 -37.05,24.51 -37.42,24.29 -37.69,23.96 -37.97,23.64 -38.12,23.24 -38.28,22.85 -38.30,22.42 -38.32,22.00 -38.21,21.59 -38.09,21.18 -37.85,20.83 -37.62,20.48 -37.28,20.22 -36.94,19.97 -36.94,19.97 -36.94,19.97 -32.94,18.33 -28.94,16.70 -26.39,16.11 -23.84,15.52 -21.57,15.25 -19.30,14.99 -16.97,14.53 -14.64,14.07 -12.45,13.16 -10.26,12.25 -8.15,11.35 -6.03,10.45 -4.31,8.86 -2.58,7.28 -2.67,5.14 -2.77,3.00 -2.80,1.63 -2.83,0.27 -2.82,-0.07 -2.81,-0.41 -2.72,-0.74 -2.63,-1.07 -2.46,-1.37 -2.30,-1.67 -2.06,-1.92 -1.83,-2.18 -1.54,-2.36 -1.25,-2.55 -0.93,-2.66 -0.60,-2.78 -0.26,-2.81 0.07,-2.84 0.41,-2.79 0.75,-2.74 1.07,-2.61 1.38,-2.48 1.66,-2.28 1.94,-2.08 2.16,-1.81 2.38,-1.55 2.53,-1.24 2.68,-0.94 2.76,-0.60 2.83,-0.26 2.83,-0.26 L 2.83,-0.27 Z"></path></g></svg>